<svg version="1.1" id="Layer_1" xmlns="http://www.w3.org/2000/svg" xmlns:xlink="http://www.w3.org/1999/xlink" x="0px" y="0px"
	 width="100%" viewBox="0 0 572 436" enable-background="new 0 0 572 436" xml:space="preserve">
<path fill="#000000" opacity="1.000000" stroke="none" 
	d="
M573.000000,149.000000 
	C573.000000,244.979416 573.000000,340.958832 573.000000,436.969116 
	C382.394836,436.969116 191.789658,436.969116 1.092242,436.969116 
	C1.092242,291.759399 1.092242,146.518707 1.092242,1.139007 
	C191.666595,1.139007 382.333282,1.139007 573.000000,1.139007 
	C573.000000,47.089443 573.000000,93.079712 572.596741,139.507416 
	C565.455627,138.770340 558.684814,136.455826 551.986511,136.649673 
	C536.204956,137.106354 520.444580,138.606567 504.701477,139.980331 
	C493.773651,140.933929 482.889984,142.390305 471.984100,143.599808 
	C467.433289,144.104523 462.858826,144.426758 458.325653,145.052841 
	C450.775391,146.095596 443.254639,147.351151 435.707672,148.419815 
	C434.715759,148.560287 433.642731,148.127838 432.034454,147.868301 
	C434.474182,145.195419 436.507568,143.116974 438.369659,140.894958 
	C441.703278,136.916931 442.596191,132.409134 440.658905,127.541870 
	C438.861847,123.026901 434.570526,122.611412 430.741089,122.603477 
	C381.251953,122.501068 331.762451,122.590355 282.273041,122.588654 
	C239.783371,122.587189 197.293701,122.515800 154.804031,122.511101 
	C145.501709,122.510071 141.217102,129.480042 145.699814,137.407379 
	C147.097366,139.878784 149.145523,141.974380 150.801086,144.309219 
	C156.264053,152.013672 161.470901,159.910141 167.172943,167.432053 
	C174.555725,177.171112 182.494186,186.489075 189.872482,196.231400 
	C197.598572,206.432968 204.944519,216.922455 212.999191,228.034653 
	C203.240646,229.516998 193.819916,230.990280 184.384415,232.362045 
	C180.190430,232.971802 175.944397,233.237549 171.761459,233.906357 
	C164.933334,234.998108 158.172333,236.566437 151.319839,237.435394 
	C141.409409,238.692078 131.458344,240.045578 121.494850,240.335983 
	C113.394989,240.572037 104.791473,243.132263 95.986359,236.749283 
	C103.788795,233.173721 110.700203,229.539124 117.950714,226.803207 
	C126.837616,223.449829 136.018494,220.879578 145.053131,217.912476 
	C152.937851,215.323013 160.826843,212.738800 168.638565,209.941757 
	C170.109680,209.415009 171.226196,207.897812 172.506332,206.837662 
	C170.729050,206.001633 168.706985,204.142395 167.215088,204.499313 
	C158.911606,206.485764 150.758957,209.091629 142.512436,211.329865 
	C131.048492,214.441345 119.395866,216.942276 108.096809,220.557220 
	C90.604240,226.153641 73.336922,232.455429 55.984760,238.488815 
	C48.853531,240.968399 41.582996,243.145416 34.681953,246.160675 
	C28.093254,249.039444 21.746723,252.576859 15.623976,256.359314 
	C13.569750,257.628326 12.199164,260.401337 11.197751,262.774536 
	C10.816442,263.678192 12.102157,266.326538 13.049828,266.575653 
	C18.075380,267.896851 23.200325,269.033020 28.360168,269.584015 
	C31.938589,269.966095 35.627377,269.173737 39.269787,269.124939 
	C48.559235,269.000336 57.852272,269.092560 67.139786,268.900513 
	C70.802536,268.824799 74.456085,268.240326 78.110832,267.858856 
	C81.744217,267.479553 85.388870,267.167725 89.001884,266.642609 
	C95.844879,265.648041 102.658005,264.446381 109.503845,263.473602 
	C115.430214,262.631470 121.390465,262.030762 127.325500,261.245880 
	C138.167419,259.812103 149.009323,258.374329 159.836655,256.835571 
	C167.233551,255.784363 174.637482,254.729843 181.980347,253.365234 
	C189.963272,251.881668 197.840775,249.819351 205.835098,248.411926 
	C213.847427,247.001328 221.995728,246.352325 229.995850,244.886124 
	C239.201477,243.198990 248.309937,240.981689 257.460602,238.994659 
	C257.576080,239.424515 257.691559,239.854370 257.807037,240.284225 
	C250.301529,243.020340 242.715530,245.558228 235.318741,248.562042 
	C230.358917,250.576202 230.390701,252.229156 233.862930,256.414856 
	C241.639496,265.789429 249.325653,275.243530 256.851746,284.819977 
	C263.187286,292.881531 269.275696,301.138519 275.402283,309.362061 
	C276.825592,311.272522 277.966705,313.394073 279.225281,315.426208 
	C284.407867,323.793915 299.848969,324.426208 304.875793,317.347290 
	C311.436432,308.108307 318.495239,299.223755 325.306061,290.161438 
	C330.457703,283.306885 335.578674,276.428986 340.673309,269.531921 
	C346.670471,261.413055 352.550385,253.206619 358.615295,245.139008 
	C366.817749,234.228027 375.112793,223.385895 383.467316,212.591003 
	C384.513428,211.239319 386.002991,209.769577 387.557465,209.345474 
	C400.108734,205.921158 412.723022,202.727615 425.321381,199.476440 
	C438.527557,196.068405 451.838104,193.017899 464.917816,189.179871 
	C478.546906,185.180618 491.976379,180.492035 505.452637,175.983749 
	C516.001221,172.454895 526.427368,168.552170 537.017944,165.158875 
	C549.315002,161.218765 560.731873,155.577209 571.521790,148.557571 
	C571.800598,148.376190 572.497864,148.838104 573.000000,149.000000 
z"/>
<path fill="#FDFDFD" opacity="1.000000" stroke="none" 
	d="
M573.000000,148.550018 
	C572.497864,148.838104 571.800598,148.376190 571.521790,148.557571 
	C560.731873,155.577209 549.315002,161.218765 537.017944,165.158875 
	C526.427368,168.552170 516.001221,172.454895 505.452637,175.983749 
	C491.976379,180.492035 478.546906,185.180618 464.917816,189.179871 
	C451.838104,193.017899 438.527557,196.068405 425.321381,199.476440 
	C412.723022,202.727615 400.108734,205.921158 387.557465,209.345474 
	C386.002991,209.769577 384.513428,211.239319 383.467316,212.591003 
	C375.112793,223.385895 366.817749,234.228027 358.615295,245.139008 
	C352.550385,253.206619 346.670471,261.413055 340.673309,269.531921 
	C335.578674,276.428986 330.457703,283.306885 325.306061,290.161438 
	C318.495239,299.223755 311.436432,308.108307 304.875793,317.347290 
	C299.848969,324.426208 284.407867,323.793915 279.225281,315.426208 
	C277.966705,313.394073 276.825592,311.272522 275.402283,309.362061 
	C269.275696,301.138519 263.187286,292.881531 256.851746,284.819977 
	C249.325653,275.243530 241.639496,265.789429 233.862930,256.414856 
	C230.390701,252.229156 230.358917,250.576202 235.318741,248.562042 
	C242.715530,245.558228 250.301529,243.020340 257.807037,240.284225 
	C257.691559,239.854370 257.576080,239.424515 257.460602,238.994659 
	C248.309937,240.981689 239.201477,243.198990 229.995850,244.886124 
	C221.995728,246.352325 213.847427,247.001328 205.835098,248.411926 
	C197.840775,249.819351 189.963272,251.881668 181.980347,253.365234 
	C174.637482,254.729843 167.233551,255.784363 159.836655,256.835571 
	C149.009323,258.374329 138.167419,259.812103 127.325500,261.245880 
	C121.390465,262.030762 115.430214,262.631470 109.503845,263.473602 
	C102.658005,264.446381 95.844879,265.648041 89.001884,266.642609 
	C85.388870,267.167725 81.744217,267.479553 78.110832,267.858856 
	C74.456085,268.240326 70.802536,268.824799 67.139786,268.900513 
	C57.852272,269.092560 48.559235,269.000336 39.269787,269.124939 
	C35.627377,269.173737 31.938589,269.966095 28.360168,269.584015 
	C23.200325,269.033020 18.075380,267.896851 13.049828,266.575653 
	C12.102157,266.326538 10.816442,263.678192 11.197751,262.774536 
	C12.199164,260.401337 13.569750,257.628326 15.623976,256.359314 
	C21.746723,252.576859 28.093254,249.039444 34.681953,246.160675 
	C41.582996,243.145416 48.853531,240.968399 55.984760,238.488815 
	C73.336922,232.455429 90.604240,226.153641 108.096809,220.557220 
	C119.395866,216.942276 131.048492,214.441345 142.512436,211.329865 
	C150.758957,209.091629 158.911606,206.485764 167.215088,204.499313 
	C168.706985,204.142395 170.729050,206.001633 172.506332,206.837662 
	C171.226196,207.897812 170.109680,209.415009 168.638565,209.941757 
	C160.826843,212.738800 152.937851,215.323013 145.053131,217.912476 
	C136.018494,220.879578 126.837616,223.449829 117.950714,226.803207 
	C110.700203,229.539124 103.788795,233.173721 95.986359,236.749283 
	C104.791473,243.132263 113.394989,240.572037 121.494850,240.335983 
	C131.458344,240.045578 141.409409,238.692078 151.319839,237.435394 
	C158.172333,236.566437 164.933334,234.998108 171.761459,233.906357 
	C175.944397,233.237549 180.190430,232.971802 184.384415,232.362045 
	C193.819916,230.990280 203.240646,229.516998 212.999191,228.034653 
	C204.944519,216.922455 197.598572,206.432968 189.872482,196.231400 
	C182.494186,186.489075 174.555725,177.171112 167.172943,167.432053 
	C161.470901,159.910141 156.264053,152.013672 150.801086,144.309219 
	C149.145523,141.974380 147.097366,139.878784 145.699814,137.407379 
	C141.217102,129.480042 145.501709,122.510071 154.804031,122.511101 
	C197.293701,122.515800 239.783371,122.587189 282.273041,122.588654 
	C331.762451,122.590355 381.251953,122.501068 430.741089,122.603477 
	C434.570526,122.611412 438.861847,123.026901 440.658905,127.541870 
	C442.596191,132.409134 441.703278,136.916931 438.369659,140.894958 
	C436.507568,143.116974 434.474182,145.195419 432.034454,147.868301 
	C433.642731,148.127838 434.715759,148.560287 435.707672,148.419815 
	C443.254639,147.351151 450.775391,146.095596 458.325653,145.052841 
	C462.858826,144.426758 467.433289,144.104523 471.984100,143.599808 
	C482.889984,142.390305 493.773651,140.933929 504.701477,139.980331 
	C520.444580,138.606567 536.204956,137.106354 551.986511,136.649673 
	C558.684814,136.455826 565.455627,138.770340 572.596741,139.972412 
	C573.000000,142.700012 573.000000,145.400024 573.000000,148.550018 
M276.465302,202.644989 
	C280.245697,203.794525 283.974976,205.671188 287.817200,205.941269 
	C295.664124,206.492798 303.545746,207.167099 310.544800,201.518463 
	C318.246429,195.302795 323.869385,188.703537 325.768524,178.237686 
	C327.226562,170.202728 325.411774,163.252090 321.852295,157.410919 
	C316.911011,149.302139 310.127380,141.797928 299.366669,141.101898 
	C291.810486,140.613144 283.850861,139.322876 277.133667,144.017502 
	C272.883270,146.988113 268.595184,150.509857 265.742432,154.740799 
	C260.813507,162.050903 257.985016,169.959534 260.108154,179.505081 
	C262.353119,189.598312 268.753265,195.970413 276.465302,202.644989 
M434.360992,176.762329 
	C440.401306,174.593582 446.415314,172.347733 452.487823,170.273270 
	C462.866791,166.727692 473.640656,164.108856 482.612335,157.328400 
	C483.626007,156.562286 484.296539,155.342117 485.385345,154.017151 
	C483.310394,153.517548 481.763306,152.845535 480.205597,152.819809 
	C471.678894,152.679016 463.149536,152.701416 454.621216,152.651428 
	C453.962463,152.647568 453.288361,152.388184 452.648621,152.467407 
	C447.155548,153.147507 441.685638,154.092194 436.174805,154.527466 
	C431.620697,154.887146 427.056396,154.931824 423.958801,158.942047 
	C420.992218,162.782700 418.205994,166.763321 415.364838,170.699966 
	C412.340210,174.890823 409.344086,179.102264 405.684875,184.213486 
	C415.889893,181.563065 424.713531,179.271408 434.360992,176.762329 
z"/>
<path fill="#020202" opacity="1.000000" stroke="none" 
	d="
M276.253052,202.368851 
	C268.753265,195.970413 262.353119,189.598312 260.108154,179.505081 
	C257.985016,169.959534 260.813507,162.050903 265.742432,154.740799 
	C268.595184,150.509857 272.883270,146.988113 277.133667,144.017502 
	C283.850861,139.322876 291.810486,140.613144 299.366669,141.101898 
	C310.127380,141.797928 316.911011,149.302139 321.852295,157.410919 
	C325.411774,163.252090 327.226562,170.202728 325.768524,178.237686 
	C323.869385,188.703537 318.246429,195.302795 310.544800,201.518463 
	C303.545746,207.167099 295.664124,206.492798 287.817200,205.941269 
	C283.974976,205.671188 280.245697,203.794525 276.253052,202.368851 
z"/>
<path fill="#030303" opacity="1.000000" stroke="none" 
	d="
M433.949097,176.871033 
	C424.713531,179.271408 415.889893,181.563065 405.684875,184.213486 
	C409.344086,179.102264 412.340210,174.890823 415.364838,170.699966 
	C418.205994,166.763321 420.992218,162.782700 423.958801,158.942047 
	C427.056396,154.931824 431.620697,154.887146 436.174805,154.527466 
	C441.685638,154.092194 447.155548,153.147507 452.648621,152.467407 
	C453.288361,152.388184 453.962463,152.647568 454.621216,152.651428 
	C463.149536,152.701416 471.678894,152.679016 480.205597,152.819809 
	C481.763306,152.845535 483.310394,153.517548 485.385345,154.017151 
	C484.296539,155.342117 483.626007,156.562286 482.612335,157.328400 
	C473.640656,164.108856 462.866791,166.727692 452.487823,170.273270 
	C446.415314,172.347733 440.401306,174.593582 433.949097,176.871033 
z"/>
</svg>